<svg version="1.2" baseProfile="tiny-ps" xmlns="http://www.w3.org/2000/svg" viewBox="0 0 27 27" width="26" height="26">
	<title>aroow</title>
	<style>
		tspan { white-space:pre }
		.shp0 { stroke: #2990b0} 
	</style>
	<path id="aroow" fill="none" class="shp0" d="M25.73 21.03C26.09 21.39 26.09 21.97 25.73 22.33L22.4 25.68C22.05 26.02 21.44 26.02 21.11 25.68L15.26 19.79L13.4 25.37C13.29 25.73 12.98 25.98 12.6 26C12.58 26 12.55 26 12.53 26C12.18 26 11.86 25.8 11.71 25.48L0.09 1.31C-0.09 0.95 0 0.53 0.27 0.26C0.56 -0.01 0.96 -0.08 1.32 0.1L25.35 12.17C25.66 12.35 25.86 12.69 25.84 13.07C25.82 13.45 25.57 13.77 25.22 13.88L20.17 15.5L25.73 21.03ZM21.71 23.77L15.46 17.48C15.28 17.3 15.06 17.21 14.81 17.21C14.74 17.21 14.68 17.21 14.61 17.23C14.3 17.3 14.05 17.52 13.96 17.84L12.35 22.67L2.88 2.93L22.51 12.8L18.18 14.2C17.87 14.29 17.65 14.53 17.58 14.85C17.51 15.16 17.6 15.48 17.83 15.7L23.77 21.68L21.71 23.77Z" />
</svg>